<mxfile host="65bd71144e">
    <diagram id="rzw9glcetbfqaGRJZ7We" name="Page-1">
        <mxGraphModel dx="551" dy="320" grid="1" gridSize="10" guides="1" tooltips="1" connect="1" arrows="1" fold="1" page="1" pageScale="1" pageWidth="1169" pageHeight="1654" math="0" shadow="0">
            <root>
                <mxCell id="0"/>
                <mxCell id="1" parent="0"/>
                <mxCell id="210" value="" style="rounded=0;whiteSpace=wrap;html=1;labelBorderColor=none;strokeColor=#36393d;strokeWidth=2;fontFamily=Comic Sans MS;fontSize=14;fillColor=#eeeeee;" vertex="1" parent="1">
                    <mxGeometry x="60" y="10" width="1060" height="590" as="geometry"/>
                </mxCell>
                <mxCell id="120" style="edgeStyle=orthogonalEdgeStyle;html=1;entryX=0;entryY=0.5;entryDx=0;entryDy=0;fontSize=14;fontColor=#000000;endArrow=none;endFill=0;exitX=0.5;exitY=0;exitDx=0;exitDy=0;strokeWidth=2;fillColor=#e1d5e7;strokeColor=#000000;" edge="1" parent="1" source="2" target="69">
                    <mxGeometry relative="1" as="geometry"/>
                </mxCell>
                <mxCell id="2" value="users" style="shape=table;startSize=30;container=1;collapsible=1;childLayout=tableLayout;fixedRows=1;rowLines=0;fontStyle=1;align=center;resizeLast=1;fillColor=#647687;strokeColor=#000000;swimlaneLine=1;swimlaneFillColor=none;fontSize=14;labelBorderColor=none;html=1;fontColor=#ffffff;strokeWidth=2;" vertex="1" parent="1">
                    <mxGeometry x="140" y="250" width="180" height="120" as="geometry"/>
                </mxCell>
                <mxCell id="3" value="" style="shape=tableRow;horizontal=0;startSize=0;swimlaneHead=0;swimlaneBody=0;fillColor=#e1d5e7;collapsible=0;dropTarget=0;points=[[0,0.5],[1,0.5]];portConstraint=eastwest;top=0;left=0;right=0;bottom=1;strokeColor=#000000;swimlaneLine=1;swimlaneFillColor=none;labelBorderColor=none;html=1;fontColor=#000000;strokeWidth=2;" vertex="1" parent="2">
                    <mxGeometry y="30" width="180" height="30" as="geometry"/>
                </mxCell>
                <mxCell id="4" value="PK" style="shape=partialRectangle;connectable=0;fillColor=#f8cecc;top=0;left=0;bottom=0;right=0;fontStyle=1;overflow=hidden;strokeColor=#b85450;swimlaneLine=1;swimlaneFillColor=none;labelBorderColor=none;html=1;strokeWidth=2;fontColor=#000000;" vertex="1" parent="3">
                    <mxGeometry width="30" height="30" as="geometry">
                        <mxRectangle width="30" height="30" as="alternateBounds"/>
                    </mxGeometry>
                </mxCell>
                <mxCell id="5" value="user_id" style="shape=partialRectangle;connectable=0;fillColor=#e1d5e7;top=0;left=0;bottom=0;right=0;align=left;spacingLeft=6;fontStyle=5;overflow=hidden;strokeColor=#000000;swimlaneLine=1;swimlaneFillColor=none;labelBorderColor=none;html=1;fontColor=#000000;strokeWidth=2;" vertex="1" parent="3">
                    <mxGeometry x="30" width="150" height="30" as="geometry">
                        <mxRectangle width="150" height="30" as="alternateBounds"/>
                    </mxGeometry>
                </mxCell>
                <mxCell id="6" value="" style="shape=tableRow;horizontal=0;startSize=0;swimlaneHead=0;swimlaneBody=0;fillColor=#e1d5e7;collapsible=0;dropTarget=0;points=[[0,0.5],[1,0.5]];portConstraint=eastwest;top=0;left=0;right=0;bottom=0;strokeColor=#000000;swimlaneLine=1;swimlaneFillColor=none;labelBorderColor=none;html=1;fontColor=#000000;strokeWidth=2;" vertex="1" parent="2">
                    <mxGeometry y="60" width="180" height="30" as="geometry"/>
                </mxCell>
                <mxCell id="7" value="" style="shape=partialRectangle;connectable=0;fillColor=#e1d5e7;top=0;left=0;bottom=0;right=0;editable=1;overflow=hidden;strokeColor=#000000;swimlaneLine=1;swimlaneFillColor=none;labelBorderColor=none;html=1;fontColor=#000000;strokeWidth=2;" vertex="1" parent="6">
                    <mxGeometry width="30" height="30" as="geometry">
                        <mxRectangle width="30" height="30" as="alternateBounds"/>
                    </mxGeometry>
                </mxCell>
                <mxCell id="8" value="username" style="shape=partialRectangle;connectable=0;fillColor=#e1d5e7;top=0;left=0;bottom=0;right=0;align=left;spacingLeft=6;overflow=hidden;strokeColor=#000000;swimlaneLine=1;swimlaneFillColor=none;perimeterSpacing=0;strokeWidth=2;labelBorderColor=none;html=1;fontColor=#000000;" vertex="1" parent="6">
                    <mxGeometry x="30" width="150" height="30" as="geometry">
                        <mxRectangle width="150" height="30" as="alternateBounds"/>
                    </mxGeometry>
                </mxCell>
                <mxCell id="9" value="" style="shape=tableRow;horizontal=0;startSize=0;swimlaneHead=0;swimlaneBody=0;fillColor=#e1d5e7;collapsible=0;dropTarget=0;points=[[0,0.5],[1,0.5]];portConstraint=eastwest;top=0;left=0;right=0;bottom=0;strokeColor=#000000;swimlaneLine=1;swimlaneFillColor=none;labelBorderColor=none;html=1;fontColor=#000000;strokeWidth=2;" vertex="1" parent="2">
                    <mxGeometry y="90" width="180" height="30" as="geometry"/>
                </mxCell>
                <mxCell id="10" value="" style="shape=partialRectangle;connectable=0;fillColor=#e1d5e7;top=0;left=0;bottom=0;right=0;editable=1;overflow=hidden;strokeColor=#000000;swimlaneLine=1;swimlaneFillColor=none;labelBorderColor=none;html=1;fontColor=#000000;strokeWidth=2;" vertex="1" parent="9">
                    <mxGeometry width="30" height="30" as="geometry">
                        <mxRectangle width="30" height="30" as="alternateBounds"/>
                    </mxGeometry>
                </mxCell>
                <mxCell id="11" value="password" style="shape=partialRectangle;connectable=0;fillColor=#e1d5e7;top=0;left=0;bottom=0;right=0;align=left;spacingLeft=6;overflow=hidden;strokeColor=#000000;swimlaneLine=1;swimlaneFillColor=none;labelBorderColor=none;html=1;fontColor=#000000;strokeWidth=2;" vertex="1" parent="9">
                    <mxGeometry x="30" width="150" height="30" as="geometry">
                        <mxRectangle width="150" height="30" as="alternateBounds"/>
                    </mxGeometry>
                </mxCell>
                <mxCell id="15" value="cpus" style="shape=table;startSize=30;container=1;collapsible=1;childLayout=tableLayout;fixedRows=1;rowLines=0;fontStyle=1;align=center;resizeLast=1;fillColor=#647687;strokeColor=#000000;swimlaneLine=1;swimlaneFillColor=none;fontSize=14;labelBorderColor=none;html=1;fontColor=#ffffff;strokeWidth=2;" vertex="1" parent="1">
                    <mxGeometry x="840" y="40" width="120" height="120" as="geometry"/>
                </mxCell>
                <mxCell id="16" value="" style="shape=tableRow;horizontal=0;startSize=0;swimlaneHead=0;swimlaneBody=0;fillColor=#e1d5e7;collapsible=0;dropTarget=0;points=[[0,0.5],[1,0.5]];portConstraint=eastwest;top=0;left=0;right=0;bottom=1;strokeColor=#000000;swimlaneLine=1;swimlaneFillColor=none;labelBorderColor=none;html=1;fontColor=#000000;strokeWidth=2;" vertex="1" parent="15">
                    <mxGeometry y="30" width="120" height="30" as="geometry"/>
                </mxCell>
                <mxCell id="17" value="PK" style="shape=partialRectangle;connectable=0;fillColor=#f8cecc;top=0;left=0;bottom=0;right=0;fontStyle=1;overflow=hidden;strokeColor=#b85450;swimlaneLine=1;swimlaneFillColor=none;labelBorderColor=none;html=1;strokeWidth=2;fontColor=#000000;" vertex="1" parent="16">
                    <mxGeometry width="30" height="30" as="geometry">
                        <mxRectangle width="30" height="30" as="alternateBounds"/>
                    </mxGeometry>
                </mxCell>
                <mxCell id="18" value="cpu_id" style="shape=partialRectangle;connectable=0;fillColor=#e1d5e7;top=0;left=0;bottom=0;right=0;align=left;spacingLeft=6;fontStyle=5;overflow=hidden;strokeColor=#000000;swimlaneLine=1;swimlaneFillColor=none;labelBorderColor=none;html=1;fontColor=#000000;strokeWidth=2;" vertex="1" parent="16">
                    <mxGeometry x="30" width="90" height="30" as="geometry">
                        <mxRectangle width="90" height="30" as="alternateBounds"/>
                    </mxGeometry>
                </mxCell>
                <mxCell id="19" value="" style="shape=tableRow;horizontal=0;startSize=0;swimlaneHead=0;swimlaneBody=0;fillColor=#e1d5e7;collapsible=0;dropTarget=0;points=[[0,0.5],[1,0.5]];portConstraint=eastwest;top=0;left=0;right=0;bottom=0;strokeColor=#000000;swimlaneLine=1;swimlaneFillColor=none;labelBorderColor=none;html=1;fontColor=#000000;strokeWidth=2;" vertex="1" parent="15">
                    <mxGeometry y="60" width="120" height="30" as="geometry"/>
                </mxCell>
                <mxCell id="20" value="" style="shape=partialRectangle;connectable=0;fillColor=#e1d5e7;top=0;left=0;bottom=0;right=0;editable=1;overflow=hidden;strokeColor=#000000;swimlaneLine=1;swimlaneFillColor=none;labelBorderColor=none;html=1;fontColor=#000000;strokeWidth=2;" vertex="1" parent="19">
                    <mxGeometry width="30" height="30" as="geometry">
                        <mxRectangle width="30" height="30" as="alternateBounds"/>
                    </mxGeometry>
                </mxCell>
                <mxCell id="21" value="name" style="shape=partialRectangle;connectable=0;fillColor=#e1d5e7;top=0;left=0;bottom=0;right=0;align=left;spacingLeft=6;overflow=hidden;strokeColor=#000000;swimlaneLine=1;swimlaneFillColor=none;perimeterSpacing=0;strokeWidth=2;labelBorderColor=none;html=1;fontColor=#000000;" vertex="1" parent="19">
                    <mxGeometry x="30" width="90" height="30" as="geometry">
                        <mxRectangle width="90" height="30" as="alternateBounds"/>
                    </mxGeometry>
                </mxCell>
                <mxCell id="22" value="" style="shape=tableRow;horizontal=0;startSize=0;swimlaneHead=0;swimlaneBody=0;fillColor=#e1d5e7;collapsible=0;dropTarget=0;points=[[0,0.5],[1,0.5]];portConstraint=eastwest;top=0;left=0;right=0;bottom=0;strokeColor=#000000;swimlaneLine=1;swimlaneFillColor=none;labelBorderColor=none;html=1;fontColor=#000000;strokeWidth=2;" vertex="1" parent="15">
                    <mxGeometry y="90" width="120" height="30" as="geometry"/>
                </mxCell>
                <mxCell id="23" value="" style="shape=partialRectangle;connectable=0;fillColor=#e1d5e7;top=0;left=0;bottom=0;right=0;editable=1;overflow=hidden;strokeColor=#000000;swimlaneLine=1;swimlaneFillColor=none;labelBorderColor=none;html=1;fontColor=#000000;strokeWidth=2;" vertex="1" parent="22">
                    <mxGeometry width="30" height="30" as="geometry">
                        <mxRectangle width="30" height="30" as="alternateBounds"/>
                    </mxGeometry>
                </mxCell>
                <mxCell id="24" value="price" style="shape=partialRectangle;connectable=0;fillColor=#e1d5e7;top=0;left=0;bottom=0;right=0;align=left;spacingLeft=6;overflow=hidden;strokeColor=#000000;swimlaneLine=1;swimlaneFillColor=none;labelBorderColor=none;html=1;fontColor=#000000;strokeWidth=2;" vertex="1" parent="22">
                    <mxGeometry x="30" width="90" height="30" as="geometry">
                        <mxRectangle width="90" height="30" as="alternateBounds"/>
                    </mxGeometry>
                </mxCell>
                <mxCell id="25" value="roms" style="shape=table;startSize=30;container=1;collapsible=1;childLayout=tableLayout;fixedRows=1;rowLines=0;fontStyle=1;align=center;resizeLast=1;fillColor=#647687;strokeColor=#000000;swimlaneLine=1;swimlaneFillColor=none;fontSize=14;labelBorderColor=none;html=1;fontColor=#ffffff;strokeWidth=2;" vertex="1" parent="1">
                    <mxGeometry x="840" y="440" width="120" height="120" as="geometry"/>
                </mxCell>
                <mxCell id="26" value="" style="shape=tableRow;horizontal=0;startSize=0;swimlaneHead=0;swimlaneBody=0;fillColor=#e1d5e7;collapsible=0;dropTarget=0;points=[[0,0.5],[1,0.5]];portConstraint=eastwest;top=0;left=0;right=0;bottom=1;strokeColor=#000000;swimlaneLine=1;swimlaneFillColor=none;labelBorderColor=none;html=1;fontColor=#000000;strokeWidth=2;" vertex="1" parent="25">
                    <mxGeometry y="30" width="120" height="30" as="geometry"/>
                </mxCell>
                <mxCell id="27" value="PK" style="shape=partialRectangle;connectable=0;fillColor=#f8cecc;top=0;left=0;bottom=0;right=0;fontStyle=1;overflow=hidden;strokeColor=#b85450;swimlaneLine=1;swimlaneFillColor=none;labelBorderColor=none;html=1;strokeWidth=2;fontColor=#000000;" vertex="1" parent="26">
                    <mxGeometry width="30" height="30" as="geometry">
                        <mxRectangle width="30" height="30" as="alternateBounds"/>
                    </mxGeometry>
                </mxCell>
                <mxCell id="28" value="rom_id" style="shape=partialRectangle;connectable=0;fillColor=#e1d5e7;top=0;left=0;bottom=0;right=0;align=left;spacingLeft=6;fontStyle=5;overflow=hidden;strokeColor=#000000;swimlaneLine=1;swimlaneFillColor=none;labelBorderColor=none;html=1;fontColor=#000000;strokeWidth=2;" vertex="1" parent="26">
                    <mxGeometry x="30" width="90" height="30" as="geometry">
                        <mxRectangle width="90" height="30" as="alternateBounds"/>
                    </mxGeometry>
                </mxCell>
                <mxCell id="29" value="" style="shape=tableRow;horizontal=0;startSize=0;swimlaneHead=0;swimlaneBody=0;fillColor=#e1d5e7;collapsible=0;dropTarget=0;points=[[0,0.5],[1,0.5]];portConstraint=eastwest;top=0;left=0;right=0;bottom=0;strokeColor=#000000;swimlaneLine=1;swimlaneFillColor=none;labelBorderColor=none;html=1;fontColor=#000000;strokeWidth=2;" vertex="1" parent="25">
                    <mxGeometry y="60" width="120" height="30" as="geometry"/>
                </mxCell>
                <mxCell id="30" value="" style="shape=partialRectangle;connectable=0;fillColor=#e1d5e7;top=0;left=0;bottom=0;right=0;editable=1;overflow=hidden;strokeColor=#000000;swimlaneLine=1;swimlaneFillColor=none;labelBorderColor=none;html=1;fontColor=#000000;strokeWidth=2;" vertex="1" parent="29">
                    <mxGeometry width="30" height="30" as="geometry">
                        <mxRectangle width="30" height="30" as="alternateBounds"/>
                    </mxGeometry>
                </mxCell>
                <mxCell id="31" value="name" style="shape=partialRectangle;connectable=0;fillColor=#e1d5e7;top=0;left=0;bottom=0;right=0;align=left;spacingLeft=6;overflow=hidden;strokeColor=#000000;swimlaneLine=1;swimlaneFillColor=none;perimeterSpacing=0;strokeWidth=2;labelBorderColor=none;html=1;fontColor=#000000;" vertex="1" parent="29">
                    <mxGeometry x="30" width="90" height="30" as="geometry">
                        <mxRectangle width="90" height="30" as="alternateBounds"/>
                    </mxGeometry>
                </mxCell>
                <mxCell id="32" value="" style="shape=tableRow;horizontal=0;startSize=0;swimlaneHead=0;swimlaneBody=0;fillColor=#e1d5e7;collapsible=0;dropTarget=0;points=[[0,0.5],[1,0.5]];portConstraint=eastwest;top=0;left=0;right=0;bottom=0;strokeColor=#000000;swimlaneLine=1;swimlaneFillColor=none;labelBorderColor=none;html=1;fontColor=#000000;strokeWidth=2;" vertex="1" parent="25">
                    <mxGeometry y="90" width="120" height="30" as="geometry"/>
                </mxCell>
                <mxCell id="33" value="" style="shape=partialRectangle;connectable=0;fillColor=#e1d5e7;top=0;left=0;bottom=0;right=0;editable=1;overflow=hidden;strokeColor=#000000;swimlaneLine=1;swimlaneFillColor=none;labelBorderColor=none;html=1;fontColor=#000000;strokeWidth=2;" vertex="1" parent="32">
                    <mxGeometry width="30" height="30" as="geometry">
                        <mxRectangle width="30" height="30" as="alternateBounds"/>
                    </mxGeometry>
                </mxCell>
                <mxCell id="34" value="price" style="shape=partialRectangle;connectable=0;fillColor=#e1d5e7;top=0;left=0;bottom=0;right=0;align=left;spacingLeft=6;overflow=hidden;strokeColor=#000000;swimlaneLine=1;swimlaneFillColor=none;labelBorderColor=none;html=1;fontColor=#000000;strokeWidth=2;" vertex="1" parent="32">
                    <mxGeometry x="30" width="90" height="30" as="geometry">
                        <mxRectangle width="90" height="30" as="alternateBounds"/>
                    </mxGeometry>
                </mxCell>
                <mxCell id="35" value="rams" style="shape=table;startSize=30;container=1;collapsible=1;childLayout=tableLayout;fixedRows=1;rowLines=0;fontStyle=1;align=center;resizeLast=1;fillColor=#647687;strokeColor=#000000;swimlaneLine=1;swimlaneFillColor=none;fontSize=14;labelBorderColor=none;html=1;fontColor=#ffffff;strokeWidth=2;" vertex="1" parent="1">
                    <mxGeometry x="840" y="200" width="120" height="120" as="geometry"/>
                </mxCell>
                <mxCell id="36" value="" style="shape=tableRow;horizontal=0;startSize=0;swimlaneHead=0;swimlaneBody=0;fillColor=#e1d5e7;collapsible=0;dropTarget=0;points=[[0,0.5],[1,0.5]];portConstraint=eastwest;top=0;left=0;right=0;bottom=1;strokeColor=#000000;swimlaneLine=1;swimlaneFillColor=none;labelBorderColor=none;html=1;fontColor=#000000;strokeWidth=2;" vertex="1" parent="35">
                    <mxGeometry y="30" width="120" height="30" as="geometry"/>
                </mxCell>
                <mxCell id="37" value="PK" style="shape=partialRectangle;connectable=0;fillColor=#f8cecc;top=0;left=0;bottom=0;right=0;fontStyle=1;overflow=hidden;strokeColor=#b85450;swimlaneLine=1;swimlaneFillColor=none;labelBorderColor=none;html=1;strokeWidth=2;fontColor=#000000;" vertex="1" parent="36">
                    <mxGeometry width="30" height="30" as="geometry">
                        <mxRectangle width="30" height="30" as="alternateBounds"/>
                    </mxGeometry>
                </mxCell>
                <mxCell id="38" value="ram_id" style="shape=partialRectangle;connectable=0;fillColor=#e1d5e7;top=0;left=0;bottom=0;right=0;align=left;spacingLeft=6;fontStyle=5;overflow=hidden;strokeColor=#000000;swimlaneLine=1;swimlaneFillColor=none;labelBorderColor=none;html=1;fontColor=#000000;strokeWidth=2;" vertex="1" parent="36">
                    <mxGeometry x="30" width="90" height="30" as="geometry">
                        <mxRectangle width="90" height="30" as="alternateBounds"/>
                    </mxGeometry>
                </mxCell>
                <mxCell id="39" value="" style="shape=tableRow;horizontal=0;startSize=0;swimlaneHead=0;swimlaneBody=0;fillColor=#e1d5e7;collapsible=0;dropTarget=0;points=[[0,0.5],[1,0.5]];portConstraint=eastwest;top=0;left=0;right=0;bottom=0;strokeColor=#000000;swimlaneLine=1;swimlaneFillColor=none;labelBorderColor=none;html=1;fontColor=#000000;strokeWidth=2;" vertex="1" parent="35">
                    <mxGeometry y="60" width="120" height="30" as="geometry"/>
                </mxCell>
                <mxCell id="40" value="" style="shape=partialRectangle;connectable=0;fillColor=#e1d5e7;top=0;left=0;bottom=0;right=0;editable=1;overflow=hidden;strokeColor=#000000;swimlaneLine=1;swimlaneFillColor=none;labelBorderColor=none;html=1;fontColor=#000000;strokeWidth=2;" vertex="1" parent="39">
                    <mxGeometry width="30" height="30" as="geometry">
                        <mxRectangle width="30" height="30" as="alternateBounds"/>
                    </mxGeometry>
                </mxCell>
                <mxCell id="41" value="name" style="shape=partialRectangle;connectable=0;fillColor=#e1d5e7;top=0;left=0;bottom=0;right=0;align=left;spacingLeft=6;overflow=hidden;strokeColor=#000000;swimlaneLine=1;swimlaneFillColor=none;perimeterSpacing=0;strokeWidth=2;labelBorderColor=none;html=1;fontColor=#000000;" vertex="1" parent="39">
                    <mxGeometry x="30" width="90" height="30" as="geometry">
                        <mxRectangle width="90" height="30" as="alternateBounds"/>
                    </mxGeometry>
                </mxCell>
                <mxCell id="42" value="" style="shape=tableRow;horizontal=0;startSize=0;swimlaneHead=0;swimlaneBody=0;fillColor=#e1d5e7;collapsible=0;dropTarget=0;points=[[0,0.5],[1,0.5]];portConstraint=eastwest;top=0;left=0;right=0;bottom=0;strokeColor=#000000;swimlaneLine=1;swimlaneFillColor=none;labelBorderColor=none;html=1;fontColor=#000000;strokeWidth=2;" vertex="1" parent="35">
                    <mxGeometry y="90" width="120" height="30" as="geometry"/>
                </mxCell>
                <mxCell id="43" value="" style="shape=partialRectangle;connectable=0;fillColor=#e1d5e7;top=0;left=0;bottom=0;right=0;editable=1;overflow=hidden;strokeColor=#000000;swimlaneLine=1;swimlaneFillColor=none;labelBorderColor=none;html=1;fontColor=#000000;strokeWidth=2;" vertex="1" parent="42">
                    <mxGeometry width="30" height="30" as="geometry">
                        <mxRectangle width="30" height="30" as="alternateBounds"/>
                    </mxGeometry>
                </mxCell>
                <mxCell id="44" value="price" style="shape=partialRectangle;connectable=0;fillColor=#e1d5e7;top=0;left=0;bottom=0;right=0;align=left;spacingLeft=6;overflow=hidden;strokeColor=#000000;swimlaneLine=1;swimlaneFillColor=none;labelBorderColor=none;html=1;fontColor=#000000;strokeWidth=2;" vertex="1" parent="42">
                    <mxGeometry x="30" width="90" height="30" as="geometry">
                        <mxRectangle width="90" height="30" as="alternateBounds"/>
                    </mxGeometry>
                </mxCell>
                <mxCell id="45" value="ips" style="shape=table;startSize=30;container=1;collapsible=1;childLayout=tableLayout;fixedRows=1;rowLines=0;fontStyle=1;align=center;resizeLast=1;fillColor=#647687;strokeColor=#000000;swimlaneLine=1;swimlaneFillColor=none;fontSize=14;labelBorderColor=none;html=1;fontColor=#ffffff;strokeWidth=2;" vertex="1" parent="1">
                    <mxGeometry x="700" y="440" width="120" height="120" as="geometry"/>
                </mxCell>
                <mxCell id="46" value="" style="shape=tableRow;horizontal=0;startSize=0;swimlaneHead=0;swimlaneBody=0;fillColor=#e1d5e7;collapsible=0;dropTarget=0;points=[[0,0.5],[1,0.5]];portConstraint=eastwest;top=0;left=0;right=0;bottom=1;strokeColor=#000000;swimlaneLine=1;swimlaneFillColor=none;labelBorderColor=none;html=1;fontColor=#000000;strokeWidth=2;" vertex="1" parent="45">
                    <mxGeometry y="30" width="120" height="30" as="geometry"/>
                </mxCell>
                <mxCell id="47" value="PK" style="shape=partialRectangle;connectable=0;fillColor=#f8cecc;top=0;left=0;bottom=0;right=0;fontStyle=1;overflow=hidden;strokeColor=#b85450;swimlaneLine=1;swimlaneFillColor=none;labelBorderColor=none;html=1;strokeWidth=2;fontColor=#000000;" vertex="1" parent="46">
                    <mxGeometry width="30" height="30" as="geometry">
                        <mxRectangle width="30" height="30" as="alternateBounds"/>
                    </mxGeometry>
                </mxCell>
                <mxCell id="48" value="ip_id" style="shape=partialRectangle;connectable=0;fillColor=#e1d5e7;top=0;left=0;bottom=0;right=0;align=left;spacingLeft=6;fontStyle=5;overflow=hidden;strokeColor=#000000;swimlaneLine=1;swimlaneFillColor=none;labelBorderColor=none;html=1;fontColor=#000000;strokeWidth=2;" vertex="1" parent="46">
                    <mxGeometry x="30" width="90" height="30" as="geometry">
                        <mxRectangle width="90" height="30" as="alternateBounds"/>
                    </mxGeometry>
                </mxCell>
                <mxCell id="49" value="" style="shape=tableRow;horizontal=0;startSize=0;swimlaneHead=0;swimlaneBody=0;fillColor=#e1d5e7;collapsible=0;dropTarget=0;points=[[0,0.5],[1,0.5]];portConstraint=eastwest;top=0;left=0;right=0;bottom=0;strokeColor=#000000;swimlaneLine=1;swimlaneFillColor=none;labelBorderColor=none;html=1;fontColor=#000000;strokeWidth=2;" vertex="1" parent="45">
                    <mxGeometry y="60" width="120" height="30" as="geometry"/>
                </mxCell>
                <mxCell id="50" value="" style="shape=partialRectangle;connectable=0;fillColor=#e1d5e7;top=0;left=0;bottom=0;right=0;editable=1;overflow=hidden;strokeColor=#000000;swimlaneLine=1;swimlaneFillColor=none;labelBorderColor=none;html=1;fontColor=#000000;strokeWidth=2;" vertex="1" parent="49">
                    <mxGeometry width="30" height="30" as="geometry">
                        <mxRectangle width="30" height="30" as="alternateBounds"/>
                    </mxGeometry>
                </mxCell>
                <mxCell id="51" value="name" style="shape=partialRectangle;connectable=0;fillColor=#e1d5e7;top=0;left=0;bottom=0;right=0;align=left;spacingLeft=6;overflow=hidden;strokeColor=#000000;swimlaneLine=1;swimlaneFillColor=none;perimeterSpacing=0;strokeWidth=2;labelBorderColor=none;html=1;fontColor=#000000;" vertex="1" parent="49">
                    <mxGeometry x="30" width="90" height="30" as="geometry">
                        <mxRectangle width="90" height="30" as="alternateBounds"/>
                    </mxGeometry>
                </mxCell>
                <mxCell id="52" value="" style="shape=tableRow;horizontal=0;startSize=0;swimlaneHead=0;swimlaneBody=0;fillColor=#e1d5e7;collapsible=0;dropTarget=0;points=[[0,0.5],[1,0.5]];portConstraint=eastwest;top=0;left=0;right=0;bottom=0;strokeColor=#000000;swimlaneLine=1;swimlaneFillColor=none;labelBorderColor=none;html=1;fontColor=#000000;strokeWidth=2;" vertex="1" parent="45">
                    <mxGeometry y="90" width="120" height="30" as="geometry"/>
                </mxCell>
                <mxCell id="53" value="" style="shape=partialRectangle;connectable=0;fillColor=#e1d5e7;top=0;left=0;bottom=0;right=0;editable=1;overflow=hidden;strokeColor=#000000;swimlaneLine=1;swimlaneFillColor=none;labelBorderColor=none;html=1;fontColor=#000000;strokeWidth=2;" vertex="1" parent="52">
                    <mxGeometry width="30" height="30" as="geometry">
                        <mxRectangle width="30" height="30" as="alternateBounds"/>
                    </mxGeometry>
                </mxCell>
                <mxCell id="54" value="price" style="shape=partialRectangle;connectable=0;fillColor=#e1d5e7;top=0;left=0;bottom=0;right=0;align=left;spacingLeft=6;overflow=hidden;strokeColor=#000000;swimlaneLine=1;swimlaneFillColor=none;labelBorderColor=none;html=1;fontColor=#000000;strokeWidth=2;" vertex="1" parent="52">
                    <mxGeometry x="30" width="90" height="30" as="geometry">
                        <mxRectangle width="90" height="30" as="alternateBounds"/>
                    </mxGeometry>
                </mxCell>
                <mxCell id="55" value="oss" style="shape=table;startSize=30;container=1;collapsible=1;childLayout=tableLayout;fixedRows=1;rowLines=0;fontStyle=1;align=center;resizeLast=1;fillColor=#647687;strokeColor=#000000;swimlaneLine=1;swimlaneFillColor=none;fontSize=14;labelBorderColor=none;html=1;fontColor=#ffffff;strokeWidth=2;" vertex="1" parent="1">
                    <mxGeometry x="560" y="440" width="120" height="120" as="geometry"/>
                </mxCell>
                <mxCell id="56" value="" style="shape=tableRow;horizontal=0;startSize=0;swimlaneHead=0;swimlaneBody=0;fillColor=#e1d5e7;collapsible=0;dropTarget=0;points=[[0,0.5],[1,0.5]];portConstraint=eastwest;top=0;left=0;right=0;bottom=1;strokeColor=#000000;swimlaneLine=1;swimlaneFillColor=none;labelBorderColor=none;html=1;fontColor=#000000;strokeWidth=2;" vertex="1" parent="55">
                    <mxGeometry y="30" width="120" height="30" as="geometry"/>
                </mxCell>
                <mxCell id="57" value="PK" style="shape=partialRectangle;connectable=0;fillColor=#f8cecc;top=0;left=0;bottom=0;right=0;fontStyle=1;overflow=hidden;strokeColor=#b85450;swimlaneLine=1;swimlaneFillColor=none;labelBorderColor=none;html=1;strokeWidth=2;fontColor=#000000;" vertex="1" parent="56">
                    <mxGeometry width="30" height="30" as="geometry">
                        <mxRectangle width="30" height="30" as="alternateBounds"/>
                    </mxGeometry>
                </mxCell>
                <mxCell id="58" value="os_id" style="shape=partialRectangle;connectable=0;fillColor=#e1d5e7;top=0;left=0;bottom=0;right=0;align=left;spacingLeft=6;fontStyle=5;overflow=hidden;strokeColor=#000000;swimlaneLine=1;swimlaneFillColor=none;labelBorderColor=none;html=1;fontColor=#000000;strokeWidth=2;" vertex="1" parent="56">
                    <mxGeometry x="30" width="90" height="30" as="geometry">
                        <mxRectangle width="90" height="30" as="alternateBounds"/>
                    </mxGeometry>
                </mxCell>
                <mxCell id="59" value="" style="shape=tableRow;horizontal=0;startSize=0;swimlaneHead=0;swimlaneBody=0;fillColor=#e1d5e7;collapsible=0;dropTarget=0;points=[[0,0.5],[1,0.5]];portConstraint=eastwest;top=0;left=0;right=0;bottom=0;strokeColor=#000000;swimlaneLine=1;swimlaneFillColor=none;labelBorderColor=none;html=1;fontColor=#000000;strokeWidth=2;" vertex="1" parent="55">
                    <mxGeometry y="60" width="120" height="30" as="geometry"/>
                </mxCell>
                <mxCell id="60" value="" style="shape=partialRectangle;connectable=0;fillColor=#e1d5e7;top=0;left=0;bottom=0;right=0;editable=1;overflow=hidden;strokeColor=#000000;swimlaneLine=1;swimlaneFillColor=none;labelBorderColor=none;html=1;fontColor=#000000;strokeWidth=2;" vertex="1" parent="59">
                    <mxGeometry width="30" height="30" as="geometry">
                        <mxRectangle width="30" height="30" as="alternateBounds"/>
                    </mxGeometry>
                </mxCell>
                <mxCell id="61" value="name" style="shape=partialRectangle;connectable=0;fillColor=#e1d5e7;top=0;left=0;bottom=0;right=0;align=left;spacingLeft=6;overflow=hidden;strokeColor=#000000;swimlaneLine=1;swimlaneFillColor=none;perimeterSpacing=0;strokeWidth=2;labelBorderColor=none;html=1;fontColor=#000000;" vertex="1" parent="59">
                    <mxGeometry x="30" width="90" height="30" as="geometry">
                        <mxRectangle width="90" height="30" as="alternateBounds"/>
                    </mxGeometry>
                </mxCell>
                <mxCell id="62" value="" style="shape=tableRow;horizontal=0;startSize=0;swimlaneHead=0;swimlaneBody=0;fillColor=#e1d5e7;collapsible=0;dropTarget=0;points=[[0,0.5],[1,0.5]];portConstraint=eastwest;top=0;left=0;right=0;bottom=0;strokeColor=#000000;swimlaneLine=1;swimlaneFillColor=none;labelBorderColor=none;html=1;fontColor=#000000;strokeWidth=2;" vertex="1" parent="55">
                    <mxGeometry y="90" width="120" height="30" as="geometry"/>
                </mxCell>
                <mxCell id="63" value="" style="shape=partialRectangle;connectable=0;fillColor=#e1d5e7;top=0;left=0;bottom=0;right=0;editable=1;overflow=hidden;strokeColor=#000000;swimlaneLine=1;swimlaneFillColor=none;labelBorderColor=none;html=1;fontColor=#000000;strokeWidth=2;" vertex="1" parent="62">
                    <mxGeometry width="30" height="30" as="geometry">
                        <mxRectangle width="30" height="30" as="alternateBounds"/>
                    </mxGeometry>
                </mxCell>
                <mxCell id="64" value="price" style="shape=partialRectangle;connectable=0;fillColor=#e1d5e7;top=0;left=0;bottom=0;right=0;align=left;spacingLeft=6;overflow=hidden;strokeColor=#000000;swimlaneLine=1;swimlaneFillColor=none;labelBorderColor=none;html=1;fontColor=#000000;strokeWidth=2;" vertex="1" parent="62">
                    <mxGeometry x="30" width="90" height="30" as="geometry">
                        <mxRectangle width="90" height="30" as="alternateBounds"/>
                    </mxGeometry>
                </mxCell>
                <mxCell id="65" value="setups" style="shape=table;startSize=30;container=1;collapsible=1;childLayout=tableLayout;fixedRows=1;rowLines=0;fontStyle=1;align=center;resizeLast=1;fillColor=#647687;strokeColor=#000000;swimlaneLine=1;swimlaneFillColor=none;fontSize=14;labelBorderColor=none;html=1;fontColor=#000000;strokeWidth=2;" vertex="1" parent="1">
                    <mxGeometry x="360" y="40" width="200" height="330" as="geometry"/>
                </mxCell>
                <mxCell id="66" value="" style="shape=tableRow;horizontal=0;startSize=0;swimlaneHead=0;swimlaneBody=0;fillColor=#e1d5e7;collapsible=0;dropTarget=0;points=[[0,0.5],[1,0.5]];portConstraint=eastwest;top=0;left=0;right=0;bottom=1;strokeColor=#000000;swimlaneLine=1;swimlaneFillColor=none;labelBorderColor=none;html=1;fontColor=#000000;strokeWidth=2;" vertex="1" parent="65">
                    <mxGeometry y="30" width="200" height="30" as="geometry"/>
                </mxCell>
                <mxCell id="67" value="PK" style="shape=partialRectangle;connectable=0;fillColor=#f8cecc;top=0;left=0;bottom=0;right=0;fontStyle=1;overflow=hidden;strokeColor=#b85450;swimlaneLine=1;swimlaneFillColor=none;labelBorderColor=none;html=1;strokeWidth=2;fontColor=#000000;" vertex="1" parent="66">
                    <mxGeometry width="29.999999999999886" height="30" as="geometry">
                        <mxRectangle width="29.999999999999886" height="30" as="alternateBounds"/>
                    </mxGeometry>
                </mxCell>
                <mxCell id="68" value="setup_id" style="shape=partialRectangle;connectable=0;fillColor=#e1d5e7;top=0;left=0;bottom=0;right=0;align=left;spacingLeft=6;fontStyle=5;overflow=hidden;strokeColor=#000000;swimlaneLine=1;swimlaneFillColor=none;labelBorderColor=none;html=1;fontColor=#000000;strokeWidth=2;" vertex="1" parent="66">
                    <mxGeometry x="29.999999999999886" width="170.0000000000001" height="30" as="geometry">
                        <mxRectangle width="170.0000000000001" height="30" as="alternateBounds"/>
                    </mxGeometry>
                </mxCell>
                <mxCell id="69" value="" style="shape=tableRow;horizontal=0;startSize=0;swimlaneHead=0;swimlaneBody=0;fillColor=#e1d5e7;collapsible=0;dropTarget=0;points=[[0,0.5],[1,0.5]];portConstraint=eastwest;top=0;left=0;right=0;bottom=0;strokeColor=#000000;swimlaneLine=1;swimlaneFillColor=none;labelBorderColor=none;html=1;fontColor=#000000;strokeWidth=2;" vertex="1" parent="65">
                    <mxGeometry y="60" width="200" height="30" as="geometry"/>
                </mxCell>
                <mxCell id="70" value="FK" style="shape=partialRectangle;connectable=0;fillColor=#d5e8d4;top=0;left=0;bottom=0;right=0;editable=1;overflow=hidden;strokeColor=#82b366;swimlaneLine=1;swimlaneFillColor=none;labelBorderColor=none;html=1;strokeWidth=2;fontColor=#000000;fontStyle=1" vertex="1" parent="69">
                    <mxGeometry width="29.999999999999886" height="30" as="geometry">
                        <mxRectangle width="29.999999999999886" height="30" as="alternateBounds"/>
                    </mxGeometry>
                </mxCell>
                <mxCell id="71" value="user_id" style="shape=partialRectangle;connectable=0;fillColor=#e1d5e7;top=0;left=0;bottom=0;right=0;align=left;spacingLeft=6;overflow=hidden;strokeColor=#000000;swimlaneLine=1;swimlaneFillColor=none;perimeterSpacing=0;strokeWidth=2;labelBorderColor=none;html=1;fontColor=#000000;" vertex="1" parent="69">
                    <mxGeometry x="29.999999999999886" width="170.0000000000001" height="30" as="geometry">
                        <mxRectangle width="170.0000000000001" height="30" as="alternateBounds"/>
                    </mxGeometry>
                </mxCell>
                <mxCell id="72" value="" style="shape=tableRow;horizontal=0;startSize=0;swimlaneHead=0;swimlaneBody=0;fillColor=#e1d5e7;collapsible=0;dropTarget=0;points=[[0,0.5],[1,0.5]];portConstraint=eastwest;top=0;left=0;right=0;bottom=0;strokeColor=#000000;swimlaneLine=1;swimlaneFillColor=none;labelBorderColor=none;html=1;fontColor=#000000;strokeWidth=2;" vertex="1" parent="65">
                    <mxGeometry y="90" width="200" height="30" as="geometry"/>
                </mxCell>
                <mxCell id="73" value="FK" style="shape=partialRectangle;connectable=0;fillColor=#d5e8d4;top=0;left=0;bottom=0;right=0;editable=1;overflow=hidden;strokeColor=#82b366;swimlaneLine=1;swimlaneFillColor=none;labelBorderColor=none;html=1;strokeWidth=2;fontColor=#000000;fontStyle=1" vertex="1" parent="72">
                    <mxGeometry width="29.999999999999886" height="30" as="geometry">
                        <mxRectangle width="29.999999999999886" height="30" as="alternateBounds"/>
                    </mxGeometry>
                </mxCell>
                <mxCell id="74" value="cpu_id" style="shape=partialRectangle;connectable=0;fillColor=#e1d5e7;top=0;left=0;bottom=0;right=0;align=left;spacingLeft=6;overflow=hidden;strokeColor=#000000;swimlaneLine=1;swimlaneFillColor=none;labelBorderColor=none;html=1;fontColor=#000000;strokeWidth=2;" vertex="1" parent="72">
                    <mxGeometry x="29.999999999999886" width="170.0000000000001" height="30" as="geometry">
                        <mxRectangle width="170.0000000000001" height="30" as="alternateBounds"/>
                    </mxGeometry>
                </mxCell>
                <mxCell id="78" value="" style="shape=tableRow;horizontal=0;startSize=0;swimlaneHead=0;swimlaneBody=0;fillColor=#e1d5e7;collapsible=0;dropTarget=0;points=[[0,0.5],[1,0.5]];portConstraint=eastwest;top=0;left=0;right=0;bottom=0;strokeColor=#000000;swimlaneLine=1;swimlaneFillColor=none;labelBorderColor=none;html=1;fontColor=#000000;strokeWidth=2;" vertex="1" parent="65">
                    <mxGeometry y="120" width="200" height="30" as="geometry"/>
                </mxCell>
                <mxCell id="79" value="FK" style="shape=partialRectangle;connectable=0;fillColor=#d5e8d4;top=0;left=0;bottom=0;right=0;editable=1;overflow=hidden;strokeColor=#82b366;swimlaneLine=1;swimlaneFillColor=none;labelBorderColor=none;html=1;strokeWidth=2;fontColor=#000000;fontStyle=1" vertex="1" parent="78">
                    <mxGeometry width="29.999999999999886" height="30" as="geometry">
                        <mxRectangle width="29.999999999999886" height="30" as="alternateBounds"/>
                    </mxGeometry>
                </mxCell>
                <mxCell id="80" value="ram_id" style="shape=partialRectangle;connectable=0;fillColor=#e1d5e7;top=0;left=0;bottom=0;right=0;align=left;spacingLeft=6;overflow=hidden;strokeColor=#000000;swimlaneLine=1;swimlaneFillColor=none;labelBorderColor=none;html=1;fontColor=#000000;strokeWidth=2;" vertex="1" parent="78">
                    <mxGeometry x="29.999999999999886" width="170.0000000000001" height="30" as="geometry">
                        <mxRectangle width="170.0000000000001" height="30" as="alternateBounds"/>
                    </mxGeometry>
                </mxCell>
                <mxCell id="81" value="" style="shape=tableRow;horizontal=0;startSize=0;swimlaneHead=0;swimlaneBody=0;fillColor=#e1d5e7;collapsible=0;dropTarget=0;points=[[0,0.5],[1,0.5]];portConstraint=eastwest;top=0;left=0;right=0;bottom=0;strokeColor=#000000;swimlaneLine=1;swimlaneFillColor=none;labelBorderColor=none;html=1;fontColor=#000000;strokeWidth=2;" vertex="1" parent="65">
                    <mxGeometry y="150" width="200" height="30" as="geometry"/>
                </mxCell>
                <mxCell id="82" value="FK" style="shape=partialRectangle;connectable=0;fillColor=#d5e8d4;top=0;left=0;bottom=0;right=0;editable=1;overflow=hidden;strokeColor=#82b366;swimlaneLine=1;swimlaneFillColor=none;labelBorderColor=none;html=1;strokeWidth=2;fontColor=#000000;fontStyle=1" vertex="1" parent="81">
                    <mxGeometry width="29.999999999999886" height="30" as="geometry">
                        <mxRectangle width="29.999999999999886" height="30" as="alternateBounds"/>
                    </mxGeometry>
                </mxCell>
                <mxCell id="83" value="rom_id" style="shape=partialRectangle;connectable=0;fillColor=#e1d5e7;top=0;left=0;bottom=0;right=0;align=left;spacingLeft=6;overflow=hidden;strokeColor=#000000;swimlaneLine=1;swimlaneFillColor=none;labelBorderColor=none;html=1;fontColor=#000000;strokeWidth=2;" vertex="1" parent="81">
                    <mxGeometry x="29.999999999999886" width="170.0000000000001" height="30" as="geometry">
                        <mxRectangle width="170.0000000000001" height="30" as="alternateBounds"/>
                    </mxGeometry>
                </mxCell>
                <mxCell id="84" value="" style="shape=tableRow;horizontal=0;startSize=0;swimlaneHead=0;swimlaneBody=0;fillColor=#e1d5e7;collapsible=0;dropTarget=0;points=[[0,0.5],[1,0.5]];portConstraint=eastwest;top=0;left=0;right=0;bottom=0;strokeColor=#000000;swimlaneLine=1;swimlaneFillColor=none;labelBorderColor=none;html=1;fontColor=#000000;strokeWidth=2;" vertex="1" parent="65">
                    <mxGeometry y="180" width="200" height="30" as="geometry"/>
                </mxCell>
                <mxCell id="85" value="FK" style="shape=partialRectangle;connectable=0;fillColor=#d5e8d4;top=0;left=0;bottom=0;right=0;editable=1;overflow=hidden;strokeColor=#82b366;swimlaneLine=1;swimlaneFillColor=none;labelBorderColor=none;html=1;strokeWidth=2;fontColor=#000000;fontStyle=1" vertex="1" parent="84">
                    <mxGeometry width="29.999999999999886" height="30" as="geometry">
                        <mxRectangle width="29.999999999999886" height="30" as="alternateBounds"/>
                    </mxGeometry>
                </mxCell>
                <mxCell id="86" value="ip_id" style="shape=partialRectangle;connectable=0;fillColor=#e1d5e7;top=0;left=0;bottom=0;right=0;align=left;spacingLeft=6;overflow=hidden;strokeColor=#000000;swimlaneLine=1;swimlaneFillColor=none;labelBorderColor=none;html=1;fontColor=#000000;strokeWidth=2;" vertex="1" parent="84">
                    <mxGeometry x="29.999999999999886" width="170.0000000000001" height="30" as="geometry">
                        <mxRectangle width="170.0000000000001" height="30" as="alternateBounds"/>
                    </mxGeometry>
                </mxCell>
                <mxCell id="128" value="" style="shape=tableRow;horizontal=0;startSize=0;swimlaneHead=0;swimlaneBody=0;fillColor=#e1d5e7;collapsible=0;dropTarget=0;points=[[0,0.5],[1,0.5]];portConstraint=eastwest;top=0;left=0;right=0;bottom=0;strokeColor=#000000;swimlaneLine=1;swimlaneFillColor=none;labelBorderColor=none;html=1;fontColor=#000000;strokeWidth=2;" vertex="1" parent="65">
                    <mxGeometry y="210" width="200" height="30" as="geometry"/>
                </mxCell>
                <mxCell id="129" value="FK" style="shape=partialRectangle;connectable=0;fillColor=#d5e8d4;top=0;left=0;bottom=0;right=0;editable=1;overflow=hidden;strokeColor=#82b366;swimlaneLine=1;swimlaneFillColor=none;labelBorderColor=none;html=1;strokeWidth=2;fontColor=#000000;fontStyle=1" vertex="1" parent="128">
                    <mxGeometry width="29.999999999999886" height="30" as="geometry">
                        <mxRectangle width="29.999999999999886" height="30" as="alternateBounds"/>
                    </mxGeometry>
                </mxCell>
                <mxCell id="130" value="os_id" style="shape=partialRectangle;connectable=0;fillColor=#e1d5e7;top=0;left=0;bottom=0;right=0;align=left;spacingLeft=6;overflow=hidden;strokeColor=#000000;swimlaneLine=1;swimlaneFillColor=none;labelBorderColor=none;html=1;fontColor=#000000;strokeWidth=2;" vertex="1" parent="128">
                    <mxGeometry x="29.999999999999886" width="170.0000000000001" height="30" as="geometry">
                        <mxRectangle width="170.0000000000001" height="30" as="alternateBounds"/>
                    </mxGeometry>
                </mxCell>
                <mxCell id="117" value="" style="shape=tableRow;horizontal=0;startSize=0;swimlaneHead=0;swimlaneBody=0;fillColor=#e1d5e7;collapsible=0;dropTarget=0;points=[[0,0.5],[1,0.5]];portConstraint=eastwest;top=0;left=0;right=0;bottom=0;strokeColor=#000000;swimlaneLine=1;swimlaneFillColor=none;labelBorderColor=none;html=1;fontColor=#000000;strokeWidth=2;" vertex="1" parent="65">
                    <mxGeometry y="240" width="200" height="30" as="geometry"/>
                </mxCell>
                <mxCell id="118" value="" style="shape=partialRectangle;connectable=0;fillColor=#e1d5e7;top=0;left=0;bottom=0;right=0;editable=1;overflow=hidden;strokeColor=#000000;swimlaneLine=1;swimlaneFillColor=none;labelBorderColor=none;html=1;fontColor=#000000;strokeWidth=2;" vertex="1" parent="117">
                    <mxGeometry width="29.999999999999886" height="30" as="geometry">
                        <mxRectangle width="29.999999999999886" height="30" as="alternateBounds"/>
                    </mxGeometry>
                </mxCell>
                <mxCell id="119" value="status (ENUM online, offline)" style="shape=partialRectangle;connectable=0;fillColor=#e1d5e7;top=0;left=0;bottom=0;right=0;align=left;spacingLeft=6;overflow=hidden;strokeColor=#000000;swimlaneLine=1;swimlaneFillColor=none;labelBorderColor=none;html=1;fontColor=#000000;strokeWidth=2;" vertex="1" parent="117">
                    <mxGeometry x="29.999999999999886" width="170.0000000000001" height="30" as="geometry">
                        <mxRectangle width="170.0000000000001" height="30" as="alternateBounds"/>
                    </mxGeometry>
                </mxCell>
                <mxCell id="111" value="" style="shape=tableRow;horizontal=0;startSize=0;swimlaneHead=0;swimlaneBody=0;fillColor=#e1d5e7;collapsible=0;dropTarget=0;points=[[0,0.5],[1,0.5]];portConstraint=eastwest;top=0;left=0;right=0;bottom=0;strokeColor=#000000;swimlaneLine=1;swimlaneFillColor=none;labelBorderColor=none;html=1;fontColor=#000000;strokeWidth=2;" vertex="1" parent="65">
                    <mxGeometry y="270" width="200" height="30" as="geometry"/>
                </mxCell>
                <mxCell id="112" value="" style="shape=partialRectangle;connectable=0;fillColor=#e1d5e7;top=0;left=0;bottom=0;right=0;editable=1;overflow=hidden;strokeColor=#000000;swimlaneLine=1;swimlaneFillColor=none;labelBorderColor=none;html=1;fontColor=#000000;strokeWidth=2;" vertex="1" parent="111">
                    <mxGeometry width="29.999999999999886" height="30" as="geometry">
                        <mxRectangle width="29.999999999999886" height="30" as="alternateBounds"/>
                    </mxGeometry>
                </mxCell>
                <mxCell id="113" value="created_at" style="shape=partialRectangle;connectable=0;fillColor=#e1d5e7;top=0;left=0;bottom=0;right=0;align=left;spacingLeft=6;overflow=hidden;strokeColor=#000000;swimlaneLine=1;swimlaneFillColor=none;labelBorderColor=none;html=1;fontColor=#000000;strokeWidth=2;" vertex="1" parent="111">
                    <mxGeometry x="29.999999999999886" width="170.0000000000001" height="30" as="geometry">
                        <mxRectangle width="170.0000000000001" height="30" as="alternateBounds"/>
                    </mxGeometry>
                </mxCell>
                <mxCell id="114" value="" style="shape=tableRow;horizontal=0;startSize=0;swimlaneHead=0;swimlaneBody=0;fillColor=#e1d5e7;collapsible=0;dropTarget=0;points=[[0,0.5],[1,0.5]];portConstraint=eastwest;top=0;left=0;right=0;bottom=0;strokeColor=#000000;swimlaneLine=1;swimlaneFillColor=none;labelBorderColor=none;html=1;fontColor=#000000;strokeWidth=2;" vertex="1" parent="65">
                    <mxGeometry y="300" width="200" height="30" as="geometry"/>
                </mxCell>
                <mxCell id="115" value="" style="shape=partialRectangle;connectable=0;fillColor=#e1d5e7;top=0;left=0;bottom=0;right=0;editable=1;overflow=hidden;strokeColor=#000000;swimlaneLine=1;swimlaneFillColor=none;labelBorderColor=none;html=1;fontColor=#000000;strokeWidth=2;" vertex="1" parent="114">
                    <mxGeometry width="29.999999999999886" height="30" as="geometry">
                        <mxRectangle width="29.999999999999886" height="30" as="alternateBounds"/>
                    </mxGeometry>
                </mxCell>
                <mxCell id="116" value="updated_at" style="shape=partialRectangle;connectable=0;fillColor=#e1d5e7;top=0;left=0;bottom=0;right=0;align=left;spacingLeft=6;overflow=hidden;strokeColor=#000000;swimlaneLine=1;swimlaneFillColor=none;labelBorderColor=none;html=1;fontColor=#000000;strokeWidth=2;" vertex="1" parent="114">
                    <mxGeometry x="29.999999999999886" width="170.0000000000001" height="30" as="geometry">
                        <mxRectangle width="170.0000000000001" height="30" as="alternateBounds"/>
                    </mxGeometry>
                </mxCell>
                <mxCell id="131" style="edgeStyle=orthogonalEdgeStyle;html=1;fontSize=14;fontColor=#000000;endArrow=none;endFill=0;exitX=0.5;exitY=0;exitDx=0;exitDy=0;strokeWidth=2;entryX=1;entryY=0.5;entryDx=0;entryDy=0;startArrow=none;startFill=0;fillColor=#e1d5e7;strokeColor=#000000;" edge="1" parent="1" source="45" target="84">
                    <mxGeometry relative="1" as="geometry">
                        <mxPoint x="175" y="470" as="sourcePoint"/>
                        <mxPoint x="660" y="300" as="targetPoint"/>
                        <Array as="points">
                            <mxPoint x="760" y="235"/>
                        </Array>
                    </mxGeometry>
                </mxCell>
                <mxCell id="133" style="edgeStyle=orthogonalEdgeStyle;html=1;entryX=1;entryY=0.5;entryDx=0;entryDy=0;fontSize=14;fontColor=#000000;endArrow=none;endFill=0;exitX=0.5;exitY=0;exitDx=0;exitDy=0;strokeWidth=2;startArrow=none;startFill=0;fillColor=#e1d5e7;strokeColor=#000000;" edge="1" parent="1" source="55" target="128">
                    <mxGeometry relative="1" as="geometry">
                        <mxPoint x="185" y="480" as="sourcePoint"/>
                        <mxPoint x="560" y="295" as="targetPoint"/>
                        <Array as="points">
                            <mxPoint x="620" y="265"/>
                        </Array>
                    </mxGeometry>
                </mxCell>
                <mxCell id="141" style="edgeStyle=orthogonalEdgeStyle;html=1;fontSize=14;fontColor=#000000;endArrow=none;endFill=0;exitX=0.5;exitY=0;exitDx=0;exitDy=0;strokeWidth=2;entryX=1;entryY=0.5;entryDx=0;entryDy=0;startArrow=none;startFill=0;fillColor=#e1d5e7;strokeColor=#000000;" edge="1" parent="1" source="25" target="81">
                    <mxGeometry relative="1" as="geometry">
                        <mxPoint x="770" y="450" as="sourcePoint"/>
                        <mxPoint x="570" y="245" as="targetPoint"/>
                        <Array as="points">
                            <mxPoint x="900" y="360"/>
                            <mxPoint x="810" y="360"/>
                            <mxPoint x="810" y="205"/>
                        </Array>
                    </mxGeometry>
                </mxCell>
                <mxCell id="142" style="edgeStyle=orthogonalEdgeStyle;html=1;fontSize=14;fontColor=#000000;endArrow=none;endFill=0;exitX=0.5;exitY=0;exitDx=0;exitDy=0;strokeWidth=2;entryX=1;entryY=0.5;entryDx=0;entryDy=0;startArrow=none;startFill=0;fillColor=#e1d5e7;strokeColor=#000000;" edge="1" parent="1" source="35" target="78">
                    <mxGeometry relative="1" as="geometry">
                        <mxPoint x="780" y="460" as="sourcePoint"/>
                        <mxPoint x="580" y="255" as="targetPoint"/>
                        <Array as="points">
                            <mxPoint x="900" y="175"/>
                        </Array>
                    </mxGeometry>
                </mxCell>
                <mxCell id="143" style="edgeStyle=orthogonalEdgeStyle;html=1;fontSize=14;fontColor=#000000;endArrow=none;endFill=0;exitX=0.5;exitY=0;exitDx=0;exitDy=0;strokeWidth=2;entryX=1;entryY=0.5;entryDx=0;entryDy=0;startArrow=none;startFill=0;fillColor=#e1d5e7;strokeColor=#000000;" edge="1" parent="1" source="15" target="72">
                    <mxGeometry relative="1" as="geometry">
                        <mxPoint x="785" y="355" as="sourcePoint"/>
                        <mxPoint x="585" y="150" as="targetPoint"/>
                        <Array as="points">
                            <mxPoint x="900" y="20"/>
                            <mxPoint x="785" y="20"/>
                            <mxPoint x="785" y="145"/>
                        </Array>
                    </mxGeometry>
                </mxCell>
            </root>
        </mxGraphModel>
    </diagram>
</mxfile>